<svg xmlns="http://www.w3.org/2000/svg" version="1.1" xmlns:xlink="http://www.w3.org/1999/xlink" xmlns:svgjs="http://svgjs.dev/svgjs" width="2000" height="368" viewBox="0 0 2000 368"><g transform="matrix(1,0,0,1,-1.2121131517914137,-0.06457990757076004)"><svg viewBox="0 0 396 73" data-background-color="#ffffff" preserveAspectRatio="xMidYMid meet" height="368" width="2000" xmlns="http://www.w3.org/2000/svg" xmlns:xlink="http://www.w3.org/1999/xlink"><g id="tight-bounds" transform="matrix(1,0,0,1,0.23999879037296523,0.012810688186590369)"><svg viewBox="0 0 395.52 72.97437862362683" height="72.97437862362683" width="395.52"><g><svg viewBox="0 0 586.1919369171865 108.15380347570778" height="72.97437862362683" width="395.52"><g><rect width="8.938917886700763" height="108.15380347570778" x="158.33271042655701" y="0" fill="#747373" opacity="1" stroke-width="0" stroke="transparent" fill-opacity="1" class="rect-o-0" data-fill-palette-color="primary" rx="1%" id="o-0" data-palette-color="#747373"></rect></g><g transform="matrix(1,0,0,1,190.67193691718646,0.2690393121286192)"><svg viewBox="0 0 395.52 107.61572485145054" height="107.61572485145054" width="395.52"><g><svg viewBox="0 0 395.52 107.61572485145054" height="107.61572485145054" width="395.52"><g><svg viewBox="0 0 395.52 107.61572485145054" height="107.61572485145054" width="395.52"><g transform="matrix(1,0,0,1,0,0)"><svg width="395.52" viewBox="3.5900015830993652 -35.0099983215332 139.6999969482422 35.01000213623047" height="107.61572485145054" data-palette-color="#747373"><svg></svg><g class="undefined-text-0" data-fill-palette-color="primary" id="text-0"><path xmlns="http://www.w3.org/2000/svg" d="M38.57-23.24v2.88c0 1.447-0.177 2.74-0.53 3.88-0.36 1.14-0.847 2.147-1.46 3.02-0.607 0.867-1.31 1.61-2.11 2.23-0.793 0.62-1.627 1.123-2.5 1.51-0.873 0.393-1.753 0.68-2.64 0.86-0.887 0.18-1.72 0.27-2.5 0.27v0h-14.35v-6.35h14.35c0.813-0.067 1.55-0.233 2.21-0.5 0.66-0.267 1.227-0.63 1.7-1.09 0.473-0.453 0.84-1.003 1.1-1.65 0.26-0.64 0.39-1.367 0.39-2.18v0-2.88c-0.087-0.8-0.26-1.533-0.52-2.2-0.26-0.667-0.613-1.237-1.06-1.71-0.447-0.473-0.987-0.843-1.62-1.11-0.633-0.267-1.367-0.4-2.2-0.4v0h-14.31c-0.847 0-1.487 0.22-1.92 0.66-0.44 0.44-0.66 1.073-0.66 1.9v0 26.1h-6.35v-26.1c0-1.627 0.297-3.01 0.89-4.15 0.593-1.14 1.333-2.06 2.22-2.76 0.887-0.7 1.85-1.207 2.89-1.52 1.047-0.32 2.01-0.48 2.89-0.48v0h14.35c1.433 0 2.72 0.183 3.86 0.55 1.14 0.367 2.143 0.853 3.01 1.46 0.873 0.613 1.617 1.32 2.23 2.12 0.607 0.793 1.11 1.627 1.51 2.5 0.4 0.867 0.69 1.747 0.87 2.64 0.173 0.887 0.26 1.72 0.26 2.5zM50.39-35.01v35.01h-6.35v-35.01zM89.16-6.35v6.35h-22.9c-0.587 0-1.217-0.07-1.89-0.21-0.68-0.14-1.347-0.353-2-0.64-0.66-0.293-1.293-0.673-1.9-1.14-0.6-0.467-1.133-1.027-1.6-1.68-0.46-0.66-0.83-1.427-1.11-2.3-0.273-0.873-0.41-1.853-0.41-2.94v0-17.19c0-0.587 0.07-1.217 0.21-1.89 0.133-0.673 0.347-1.34 0.64-2 0.293-0.66 0.677-1.29 1.15-1.89 0.473-0.607 1.04-1.14 1.7-1.6 0.66-0.467 1.42-0.837 2.28-1.11 0.86-0.28 1.837-0.42 2.93-0.42v0h22.9v6.35h-22.9c-0.833 0-1.467 0.22-1.9 0.66-0.44 0.44-0.66 1.09-0.66 1.95v0 17.14c0 0.813 0.223 1.443 0.67 1.89 0.447 0.447 1.077 0.67 1.89 0.67v0zM129.52-31.81v31.81h-6.35v-8.59h-22.32v8.59h-6.34v-17.5c0-2.56 0.44-4.913 1.32-7.06 0.873-2.147 2.093-3.993 3.66-5.54 1.56-1.547 3.407-2.753 5.54-3.62 2.133-0.86 4.46-1.29 6.98-1.29v0h14.31c0.44 0 0.853 0.08 1.24 0.24 0.393 0.167 0.737 0.397 1.03 0.69 0.293 0.293 0.52 0.633 0.68 1.02 0.167 0.393 0.25 0.81 0.25 1.25zM100.85-17.5v2.56h22.32v-13.72h-11.16c-0.193 0-0.603 0.027-1.23 0.08-0.627 0.06-1.35 0.203-2.17 0.43-0.827 0.227-1.693 0.577-2.6 1.05-0.913 0.473-1.753 1.123-2.52 1.95-0.767 0.833-1.397 1.873-1.89 3.12-0.5 1.24-0.75 2.75-0.75 4.53zM143.29-35.01v35.01h-6.35v-35.01z" fill="#747373" fill-rule="nonzero" stroke="none" stroke-width="1" stroke-linecap="butt" stroke-linejoin="miter" stroke-miterlimit="10" stroke-dasharray="" stroke-dashoffset="0" font-family="none" font-weight="none" font-size="none" text-anchor="none" style="mix-blend-mode: normal" data-fill-palette-color="primary" opacity="1"></path></g></svg></g></svg></g></svg></g></svg></g><g transform="matrix(1,0,0,1,0,0.2690393121286192)"><svg viewBox="0 0 134.93240182262832 107.61572485145054" height="107.61572485145054" width="134.93240182262832"><g><svg xmlns="http://www.w3.org/2000/svg" xmlns:xlink="http://www.w3.org/1999/xlink" version="1.1" x="0" y="0" viewBox="5.100000381469727 11 89.9000015258789 71.70000457763672" style="enable-background:new 0 0 100 100;" xml:space="preserve" height="107.61572485145054" width="134.93240182262832" class="icon-icon-0" data-fill-palette-color="accent" id="icon-0"><g fill="#c8c8c8" data-fill-palette-color="accent"><g fill="#c8c8c8" data-fill-palette-color="accent"><path d="M83.5 16h-3.2l-4.5-5H55.3l-4.5 5H16.5c-6.3 0-11.4 5.1-11.4 11.4v43.9c0 6.3 5.1 11.4 11.4 11.4h67.1c6.3 0 11.4-5.1 11.4-11.4V27.4C94.9 21.1 89.8 16 83.5 16zM85.9 71.3c0 1.3-1.1 2.4-2.4 2.4H16.5c-1.3 0-2.4-1.1-2.4-2.4V27.4c0-1.3 1.1-2.4 2.4-2.4h38.3l4.5-5h12.5l4.5 5h7.2c1.3 0 2.4 1.1 2.4 2.4V71.3z" fill="#c8c8c8" data-fill-palette-color="accent"></path><path d="M50 34.2c-8.7 0-15.8 7.1-15.8 15.8S41.3 65.8 50 65.8 65.8 58.7 65.8 50 58.7 34.2 50 34.2zM50 56.8c-3.7 0-6.8-3-6.8-6.8s3-6.8 6.8-6.8 6.8 3 6.8 6.8S53.7 56.8 50 56.8z" fill="#c8c8c8" data-fill-palette-color="accent"></path><circle cx="75.4" cy="35" r="3.7" fill="#c8c8c8" data-fill-palette-color="accent"></circle></g></g></svg></g></svg></g></svg></g><defs></defs></svg><rect width="395.52" height="72.97437862362683" fill="none" stroke="none" visibility="hidden"></rect></g></svg></g></svg>